<svg width="286" height="200" fill="none" xmlns="http://www.w3.org/2000/svg"><g clip-path="url(#clip0)"><path d="M233.7 0H81.2v193.3h152.5V0z" fill="#EDD1AF"/><g opacity=".4" fill="#E0AF7F"><path opacity=".4" d="M83.6 58.5l147.8 2.8V49.7H83.6v8.8zM83.6 110.4l147.8 2.8v-11.7H83.6v9zM83.6 162.3l147.8 2.8v-11.7H83.6v9zM83.6 13l147.8 2.7V4.1H83.6V13z"/></g><path d="M83.6 50.3h147.8v-4.8H83.6v4.8zM83.6 102.2h147.8v-4.8H83.6v4.8zM83.6 154h147.8v-4.7H83.6v4.8zM83.6 4.7h147.8V0H83.6v4.7zM38.4 189.2l28.4 4L81.3 92.8l-28.5-4-14.4 100.5z" fill="#E0AF7F"/><g style="mix-blend-mode:multiply"><path d="M62.7 98l1.7-.5 1.5 1 1.7-.5 1.4 1 1.1-7.8-6.3-1-1 7.9z" fill="#EDD1AF"/></g><g style="mix-blend-mode:multiply"><path d="M56.9 184l-1.7.4-1.5-1-1.7.6-1.4-1-1.2 7.8 6.4 1 1-7.9z" fill="#EDD1AF"/></g><path d="M70.2 116.9l1.2-8.7a.5.5 0 00-.4-.6l-12.6-1.8h-.2a.5.5 0 00-.3.4l-1.3 8.7a.5.5 0 00.4.6l12.6 1.8a.5.5 0 00.4-.1.5.5 0 00.2-.3" fill="#fff"/><path d="M60 109.8l6.7 1a1 1 0 00.8-.2 1 1 0 00.4-1.1 1 1 0 00-1-.8l-6.5-1a1 1 0 00-1 1.7l.7.4zM59 112.1l9.7 1.4a.4.4 0 00.3 0 .4.4 0 00.1-.3.4.4 0 00-.1-.4l-.2-.1-9.7-1.4h-.2a.4.4 0 00-.2.2.4.4 0 000 .3.4.4 0 00.3.3zM58.7 113.7l9.8 1.4a.4.4 0 00.3 0 .4.4 0 00.1-.5.4.4 0 00-.3-.3l-9.8-1.4h-.1a.4.4 0 00-.3.2.4.4 0 000 .3.4.4 0 00.3.3z" fill="#E9E9EA"/><path d="M229 0v193.3h4.7V0H229zM81.2 0v193.3H86V0h-4.8z" fill="#E0AF7F"/><path d="M23 93.8h-4.7v98.7H23V93.8z" fill="#FF2728"/><path d="M34.9 94.4H6.3A1.4 1.4 0 015 92.7V58a1.4 1.4 0 011.4-1H35a1.4 1.4 0 011.3 1.6v34.8a1.4 1.4 0 01-1.4 1" fill="#FF2728"/><path d="M31.9 90.6H9.5a1 1 0 01-1-1v-28a1 1 0 011-1h22.4a1 1 0 011 1v28a1 1 0 01-1 1z" fill="#fff"/><path d="M27.9 68H13.4v11.7H28V68z" fill="#F28C41"/><g style="mix-blend-mode:multiply"><path d="M22.3 68H19v2h3.3v-2z" fill="#EDD1AF"/></g><g style="mix-blend-mode:multiply"><path d="M22.3 77.7H19v2h3.3v-2z" fill="#EDD1AF"/></g><path d="M17 76.2v-4.6a.2.2 0 01.3-.3H24a.2.2 0 01.3.3v4.6a.2.2 0 01-.3.2h-6.7a.2.2 0 01-.2-.2z" fill="#fff"/><path d="M21.9 73.2h-3.5a.5.5 0 110-1.1h3.5a.5.5 0 110 1zM23.2 74.5h-5.1a.2.2 0 010-.4h5.1a.2.2 0 01.2.1.2.2 0 01-.2.3zM23.2 75.4h-5.1a.2.2 0 010-.4h5.1a.2.2 0 01.2.1.2.2 0 01-.2.3z" fill="#E9E9EA"/><path d="M16.2 86.4a.3.3 0 01-.2 0l-2.6-2.6a.3.3 0 01.5-.5l2.5 2.6a.3.3 0 01-.2.6z" fill="gray"/><path d="M13.6 86.4a.3.3 0 01-.2-.5l2.6-2.6a.3.3 0 01.4.5L14 86.3a.3.3 0 01-.3.1zM18 86.4a.3.3 0 01-.2-.6c.6-.3 1-.8 1.3-1.3l-.4-2c0-1.3.7-1.4 1-1.4a.9.9 0 01.8.7c.2.7-.1 1.8-.6 2.7 0 .5.3 1 .7 1.3.2 0 .5-.3.7-.6a1.5 1.5 0 011.1-.7 1.3 1.3 0 011 .6 1.5 1.5 0 001.1.7 7.4 7.4 0 003.1-1.3.3.3 0 01.3.6s-2 1.4-3.4 1.4a2.1 2.1 0 01-1.7-1c-.1-.2-.3-.3-.4-.3-.2 0-.4.2-.6.4a1.8 1.8 0 01-1.3.9c-.4 0-.8-.6-1-1.2a4 4 0 01-1.3 1.1H18zm1.6-4.6l-.2.3c0 .5 0 1 .2 1.5.2-.5.3-1 .2-1.6 0-.2 0-.2-.2-.2z" fill="gray"/><g style="mix-blend-mode:multiply"><path d="M23 94.4h-4.7v2.3l4.7 2.2v-4.5z" fill="#CBCBCB"/></g><path d="M30.3 191.1H11c-.4 0-.7.3-.7.7v1c0 .4.3.7.7.7h19.3c.4 0 .7-.3.7-.7v-1c0-.4-.3-.7-.7-.7z" fill="#FF2728"/><path d="M137.9 132s-32.4 61.8-12.3 61.3h34.5l2.4-39.5-24.6-21.9z" fill="#fff"/><path d="M160 193.3h-29.6s3.6-33.5 16.5-33.5c13 0 13.2 33.5 13.2 33.5z" fill="#E9EAF2"/><path d="M162.5 155.2s3 38-2.4 38-8-32.2-8-32.2M140.6 155.2s-3 38 2.4 38 8-32.2 8-32.2M145.6 116.2s-8.8-9-10.9-8c-2.1 1-.7 14.4 1 15.9 1.9 1.4 10-7.9 10-7.9zM149.5 116.7s4.7-11.7 7-11.5c2.4.2 6.1 13 5 15-1.1 2.1-12-3.5-12-3.5z" fill="#fff"/><path d="M164 126.7c1.2 8.2-5.2 16-11.8 17-2.7.4-16-3-16.8-13-1.2-8.2 1.2-15.4 12.2-17 11-1.5 15.3 4.7 16.4 13z" fill="#fff"/><path d="M154.4 124.6h-.1a.5.5 0 01-.4-.6c0-.4.7-4.2 2.9-4.5 2.1-.3 3.8 3.1 4 3.5a.5.5 0 01-.1.6.5.5 0 01-.4.1h-.2a.5.5 0 01-.3-.3c-.3-.8-1.7-3-2.9-2.9-1.2.2-1.9 2.8-2 3.7a.5.5 0 01-.5.4zM143.8 126.1h-.2l-.2-.1a.5.5 0 010-.5c0-.4.6-4.1 2.8-4.5 2.2-.3 3.8 3.2 4 3.6a.5.5 0 010 .4.5.5 0 01-.6.3.5.5 0 01-.3-.3c-.4-.8-1.7-3.1-3-3-1.1.2-1.8 2.8-2 3.7a.5.5 0 01-.5.4z" fill="#471F05"/><path d="M169.4 156.4h-35.5v-.1c1.8-7 1.8-14.3 0-21.2v-.1l12.1 1c3.3.3 6.6.3 9.8 0l13.6-1c-1.8 7-1.8 14.2 0 21.2v.2z" fill="#F28C41"/><g style="mix-blend-mode:multiply"><path d="M148.4 152.4l1.6.7 1.7-.7 1.6.7 1.6-.7v4h-6.5v-4z" fill="#EDD1AF"/></g><path d="M144.6 150.2v-9a.5.5 0 01.2-.4.5.5 0 01.3-.1h13.1a.5.5 0 01.5.5v9.2l-.1.1-.2.1h-13.5a.5.5 0 01-.2-.2v-.2" fill="#fff"/><path d="M154 144.3h-6.8a1 1 0 01-.7-.3 1 1 0 01.7-1.8h6.9a1 1 0 010 2.1zM156.7 147h-10.1a.4.4 0 01-.3-.7l.3-.2h10.1a.4.4 0 01.3.7l-.3.2zM156.7 148.7h-10.1a.4.4 0 01-.3-.7l.3-.1h10.1a.4.4 0 01.3.7h-.3z" fill="#E9E9EA"/><path d="M153.5 127.2c4.2-.6 11.2-2.2 11.7.8.5 3.1-3.7 8.3-8 9a9.8 9.8 0 01-9-3.5" fill="#fff"/><path d="M155.8 137.6a10.2 10.2 0 01-8-4 .5.5 0 010-.3.5.5 0 01.3-.3.5.5 0 01.4.1l.2.1a9.2 9.2 0 008.5 3.2c4-.6 8-5.5 7.5-8.3a1.2 1.2 0 00-.5-.8c-1.5-1-5.8-.4-9 .1a154.4 154.4 0 01-2 .2.5.5 0 01.3-1c.4 0 1 0 1.5-.2 3.5-.6 8-1.3 9.8 0a2.2 2.2 0 011 1.6c.5 3.8-4.6 8.9-8.4 9.4l-1.6.2z" fill="#471F05"/><path d="M158.4 127.2c.4-1 5.5-1.7 6.3-1 .7.8-1.3 4.4-2.6 4.6-1.3.1-4.2-2.8-3.7-3.6z" fill="#471F05"/><path d="M121 186.7s-10.8-2.1-9.7-17.8c-6.4 3-15.7 24.4 14.3 24.4l-4.7-6.6z" fill="#fff"/><path d="M254.7 161h7.3s3.7-21-14.8-30.1l7.5 30.2z" fill="#007629"/><path d="M267.2 161s2.6.1 2.8-3.7c.1-1.5-1.3-4.1-.8-6.2.4-1.7 3.5-2.8 4.4-4.7 1-2.5 0-6.6 2-9.4-14.9 7-14.9 24-14.9 24h6.5zM251 161h7.5s-2.3-14.7-15.8-18.6l8.4 18.7z" fill="#009745"/><path d="M271.7 160.2h-25s-.4 26.4 12.4 26.4c13 0 12.6-26.4 12.6-26.4z" fill="#B5DFEB"/><g style="mix-blend-mode:multiply"><path d="M271.7 160.2s.3 26.4-12.6 26.4c0 0 8.8-6.4 7.3-26.4h5.3z" fill="#E9E9EA"/></g><path d="M271.7 181.1h-25.1v2.7h25.1v-2.7z" fill="#E0AF7F"/><path d="M247.3 165.8h-.1c-.7 0-1.3.5-1.3 1.2v25c0 .8.6 1.3 1.3 1.3h.1c.7 0 1.2-.5 1.2-1.2v-25c0-.8-.5-1.3-1.2-1.3zM271.1 165.8h-.1c-.7 0-1.3.5-1.3 1.2v25c0 .8.6 1.3 1.3 1.3h.1c.7 0 1.3-.5 1.3-1.2v-25c0-.8-.6-1.3-1.3-1.3z" fill="#E0AF7F"/><path d="M203.3 63.6h-54.5v33.8h54.5V63.6z" fill="#F28C41"/><g style="mix-blend-mode:multiply"><path d="M179.3 71.7l-1.6-.7-1.7.7-1.6-.7-1.6.7v-8.1h6.5v8.1z" fill="#EDD1AF"/></g><g style="mix-blend-mode:multiply"><path d="M172.8 89.3l1.6.7 1.6-.7 1.7.7 1.6-.7v8h-6.5v-8z" fill="#EDD1AF"/></g><path d="M152.9 77.2v-9a.5.5 0 01.1-.4.5.5 0 01.4-.1h13a.5.5 0 01.6.5v9a.5.5 0 01-.2.3.5.5 0 01-.3.2h-13.1a.5.5 0 01-.5-.3v-.2z" fill="#fff"/><path d="M162.4 71.3h-6.9a1 1 0 01-1-1.4 1 1 0 01.6-.6H162.4a1 1 0 010 2M165 74h-10.1a.4.4 0 01-.4-.4.4.4 0 01.4-.4h10a.4.4 0 01.5.4.4.4 0 01-.4.4zM165 75.7h-10.1a.4.4 0 01-.4-.4.4.4 0 01.4-.4h10a.4.4 0 01.5.4.4.4 0 01-.4.4z" fill="#E9E9EA"/><path d="M213.3 118h-33v31.3h33V118z" fill="#E0AF7F"/><g style="mix-blend-mode:multiply"><path d="M199.9 125.5l-1.5-.7-1.6.7-1.5-.7-1.5.7V118h6v7.5z" fill="#EDD1AF"/></g><g style="mix-blend-mode:multiply"><path d="M193.8 141.8l1.5.7 1.5-.7 1.6.7 1.5-.7v7.5h-6.1v-7.5z" fill="#EDD1AF"/></g><path d="M190.3 137.8v-8.3-.2a.5.5 0 01.5-.3h12.1l.3.1.2.4v8.3a.5.5 0 01-.5.5h-12.1a.5.5 0 01-.5-.3v-.2z" fill="#fff"/><path d="M199 132.4h-6.3a1 1 0 01-.7-.3 1 1 0 01-.2-1 1 1 0 011-.7h6.3a1 1 0 010 2zM201.5 134.8h-9.4-.2a.4.4 0 01.2-.7h9.4a.4.4 0 01.4.4.4.4 0 01-.4.3zM201.5 136.4h-9.4a.4.4 0 010-.7h9.4a.4.4 0 01.4.2.4.4 0 01-.4.5z" fill="#E9E9EA"/><path d="M140.8 54h-29.6v43.4h29.6V54z" fill="#E0AF7F"/><g style="mix-blend-mode:multiply"><path d="M129.3 62.1l-1.6-.7-1.7.7-1.7-.7-1.6.7V54h6.6v8.1z" fill="#EDD1AF"/></g><g style="mix-blend-mode:multiply"><path d="M122.7 89.3l1.6.7 1.7-.7 1.7.7 1.6-.7v8h-6.6v-8z" fill="#EDD1AF"/></g><path d="M119 80.2v-9a.5.5 0 01.1-.4.5.5 0 01.4-.1h13a.5.5 0 01.6.5v9a.5.5 0 01-.5.5h-13.1a.5.5 0 01-.5-.5" fill="#fff"/><path d="M128.4 74.3h-6.8a1 1 0 110-2h6.8a1 1 0 010 2zM131 77h-10a.4.4 0 110-.8h10a.4.4 0 01.5.4.4.4 0 01-.4.4zM131 78.7h-10a.4.4 0 01-.4-.4V78l.4-.1h10a.4.4 0 010 .8z" fill="#E9E9EA"/><path d="M155.4 24.2h-52.3v21.3h52.3V24.2z" fill="#F28C41"/><g style="mix-blend-mode:multiply"><path d="M132.1 31.4l-1.4-.7-1.5.7-1.4-.7-1.4.7v-7.2h5.7v7.2z" fill="#EDD1AF"/></g><g style="mix-blend-mode:multiply"><path d="M126.4 38.4l1.4.7 1.4-.7 1.5.7 1.4-.7v7.1h-5.7v-7.1z" fill="#EDD1AF"/></g><path d="M107.2 36.7v-7.9a.4.4 0 01.5-.4h11.5a.4.4 0 01.4.4v8a.4.4 0 01-.1.3.4.4 0 01-.3 0h-11.5a.4.4 0 01-.5-.4" fill="#fff"/><path d="M115.6 31.6h-6a1 1 0 01-1-.6 1 1 0 01.6-1.2h6.3a1 1 0 010 1.8zM117.9 34h-9a.4.4 0 01-.2-.2.4.4 0 01.3-.6h8.9a.4.4 0 01.2.1.4.4 0 01-.2.6zM117.9 35.4h-9a.4.4 0 01-.2 0 .4.4 0 01.3-.7h8.9a.4.4 0 01.2.1.4.4 0 01-.2.6z" fill="#E9E9EA"/><path d="M216.6 12h-44.3v33.5h44.3V12z" fill="#E0AF7F"/><g style="mix-blend-mode:multiply"><path d="M197 18.4l-1.2-.6-1.4.6-1.3-.6-1.3.6V12h5.3v6.5z" fill="#EDD1AF"/></g><g style="mix-blend-mode:multiply"><path d="M191.8 39l1.3.6 1.3-.6 1.4.6 1.3-.6v6.5h-5.3V39z" fill="#EDD1AF"/></g><path d="M188.8 31.8v-7.2a.4.4 0 01.1-.3.4.4 0 01.3-.1h10.5a.4.4 0 01.3.2v7.4a.4.4 0 010 .3.4.4 0 01-.3 0h-10.5a.4.4 0 01-.4-.3z" fill="#fff"/><path d="M196.4 27h-5.5a.8.8 0 01-.6-1.3l.6-.3h5.5a.8.8 0 010 1.7zM198.5 29.2h-8.1a.3.3 0 01-.3-.2.3.3 0 010-.3.3.3 0 01.2-.1h8.2a.3.3 0 010 .6zM198.5 30.6h-8.1a.3.3 0 01-.3-.2.3.3 0 010-.3.3.3 0 01.2-.2h8.2a.3.3 0 010 .7z" fill="#E9E9EA"/><path d="M284 193.5H-1.2v6.3h285.4v-6.3z" fill="#E9EAF2"/></g><defs><clipPath id="clip0"><path fill="#fff" d="M0 0h285.4v200H0z"/></clipPath></defs></svg>