<svg width="16" height="16" viewBox="0 0 16 16" fill="none" xmlns="http://www.w3.org/2000/svg">
<path fill-rule="evenodd" clip-rule="evenodd" d="M16 8C16 12.4183 12.4183 16 8 16C3.58172 16 0 12.4183 0 8C0 3.58172 3.58172 0 8 0C12.4183 0 16 3.58172 16 8ZM8.66666 4.58667C8.66666 5.01333 8.32666 5.33333 7.92666 5.33333C7.50666 5.33333 7.17333 5.01333 7.17333 4.58667C7.17333 4.17333 7.51333 3.83333 7.92666 3.83333C8.32666 3.83333 8.66666 4.16667 8.66666 4.58667ZM8 12H6.37333C6.00666 12 5.70666 11.7 5.70666 11.3333C5.70666 10.9667 6.00666 10.6667 6.37333 10.6667H7.33333V8H6.37333C6.00666 8 5.70666 7.7 5.70666 7.33333C5.70666 6.96667 6.00666 6.66667 6.37333 6.66667H8C8.36666 6.66667 8.66666 6.96667 8.66666 7.33333V10.6667H9.63333C10 10.6667 10.3 10.9667 10.3 11.3333C10.3 11.7 10 12 9.62666 12H8Z" fill="#028EB7"/>
</svg>
