<svg width="16" height="16" viewBox="0 0 16 16" fill="none" xmlns="http://www.w3.org/2000/svg">
<path d="M8 0C6.41775 0 4.87103 0.469192 3.55544 1.34824C2.23985 2.22729 1.21447 3.47672 0.608967 4.93853C0.00346625 6.40034 -0.15496 8.00887 0.153721 9.56072C0.462403 11.1126 1.22433 12.538 2.34315 13.6569C3.46197 14.7757 4.88743 15.5376 6.43928 15.8463C7.99113 16.155 9.59966 15.9965 11.0615 15.391C12.5233 14.7855 13.7727 13.7602 14.6518 12.4446C15.5308 11.129 16 9.58225 16 8C16 5.87827 15.1571 3.84344 13.6569 2.34315C12.1566 0.842855 10.1217 0 8 0V0ZM11.933 6.324L8.044 10.961C7.95498 11.0673 7.84483 11.1539 7.72054 11.2154C7.59624 11.2769 7.46052 11.3118 7.322 11.318H7.278C7.01281 11.3179 6.7585 11.2125 6.571 11.025L4.571 9.025C4.47333 8.93327 4.39508 8.82285 4.34091 8.70029C4.28674 8.57774 4.25775 8.44554 4.25567 8.31156C4.25359 8.17758 4.27846 8.04455 4.3288 7.92037C4.37913 7.79619 4.45391 7.68339 4.5487 7.58868C4.64348 7.49396 4.75633 7.41926 4.88055 7.36901C5.00476 7.31876 5.13781 7.29399 5.27179 7.29617C5.40577 7.29834 5.53794 7.32742 5.66046 7.38168C5.78298 7.43593 5.89335 7.51426 5.985 7.612L7.213 8.84L10.4 5.04C10.5704 4.83671 10.8146 4.70944 11.0788 4.68619C11.3431 4.66293 11.6057 4.7456 11.809 4.916C12.0123 5.0864 12.1396 5.33058 12.1628 5.59482C12.1861 5.85906 12.1034 6.12171 11.933 6.325V6.324Z" fill="#3F4450"/>
</svg>
